<?xml version="1.0" encoding="iso-8859-1"?>
<!-- Uploaded to: SVG Repo, www.svgrepo.com, Generator: SVG Repo Mixer Tools -->
<svg height="800px" width="800px" version="1.1" id="Capa_1" xmlns="http://www.w3.org/2000/svg" xmlns:xlink="http://www.w3.org/1999/xlink" 
	 viewBox="0 0 56.17 56.17" xml:space="preserve">
<g>
	<g>
		<path style="fill:#030104;" d="M44.749,34.393c-0.291,0-0.728,0.105-1.131,0.585L33.265,46.353
			c-0.373,0.439-0.521,0.995-0.408,1.523c0.114,0.528,0.478,0.973,0.963,1.201l9.851,5.157c0.26,0.124,0.524,0.187,0.788,0.187
			c0.881,0,1.546-0.713,1.546-1.659V35.887C46.004,34.86,45.353,34.393,44.749,34.393z M44.004,52.152l-9.018-4.721l9.018-9.908
			C44.004,37.523,44.004,52.152,44.004,52.152z"/>
		<path style="fill:#030104;" d="M24.586,48.744c-0.192-0.515-0.646-0.881-1.248-1.007L12.67,45.519
			c-1.137-0.237-2.183,0.622-2.183,1.776v6.875c0,1.103,0.897,2,2,2h5.875c0.868,0,1.878-0.501,2.401-1.191l3.537-4.655
			C24.673,49.835,24.777,49.259,24.586,48.744z M19.17,53.77c-0.145,0.191-0.567,0.4-0.808,0.4h-5.875v-6.646l9.869,2.053
			L19.17,53.77z"/>
		<path style="fill:#030104;" d="M12.487,30.067h2.812c0.99,0,1.959-0.712,2.254-1.655l1.338-4.257
			c0.176-0.558,0.093-1.129-0.228-1.566c-0.32-0.438-0.84-0.688-1.425-0.688h-4.751c-1.103,0-2,0.897-2,2v4.166
			C10.487,29.17,11.384,30.067,12.487,30.067z M12.487,23.901h4.388l-1.231,3.913c-0.035,0.111-0.229,0.253-0.346,0.253h-2.812
			v-4.166H12.487z"/>
		<path style="fill:#030104;" d="M28.87,4.403c-3,0-5.44,2.44-5.44,5.44s2.44,5.44,5.44,5.44s5.44-2.44,5.44-5.44
			S31.87,4.403,28.87,4.403z M28.87,14.283c-2.448,0-4.44-1.992-4.44-4.44s1.992-4.44,4.44-4.44s4.44,1.992,4.44,4.44
			S31.318,14.283,28.87,14.283z"/>
		<path style="fill:#030104;" d="M36.538,53.447l-6.978-3.541c-0.922-0.47-2.234-0.213-2.911,0.56l-2.534,2.885
			c-0.657,0.746-0.465,1.407-0.353,1.657c0.113,0.249,0.483,0.83,1.477,0.83h10.727c1.083,0,1.381-0.572,1.463-0.914
			C37.511,54.583,37.504,53.937,36.538,53.447z M26.351,53.837l1.801-2.051c0.078-0.089,0.372-0.165,0.503-0.097l4.227,2.148H26.351
			z"/>
		<path style="fill:#030104;" d="M43.005,21.901h-8.187c-0.139,0-0.274,0.021-0.409,0.04l3.198-6.457l1.138-2.625
			c0.593-1.963,0.526-4.006-0.198-6.07c-1.85-5.279-7.648-8.067-12.928-6.217c-5.278,1.849-8.066,7.65-6.216,12.927
			c0.053,0.151,1.441,4.025,3.02,8.43c-0.878,0.132-1.676,0.793-1.929,1.645l-1.264,4.251c-0.165,0.558-0.074,1.126,0.25,1.56
			c0.324,0.434,0.843,0.683,1.425,0.683h4.437c0.995,2.773,1.712,4.774,1.712,4.774c0.221,0.63,0.641,0.655,0.936,0.059l3.831-7.734
			v3.044c0,1.344,0.838,2.283,2.037,2.283c0.395,0,0.798-0.105,1.199-0.312l6.123-3.164c0.269-0.139,0.604-0.216,0.946-0.216
			c0.478,0,0.808,0.144,0.957,0.278c0.508,0.455,0.978,0.551,1.281,0.551c0.816,0,1.641-0.671,1.641-2.17v-2.56
			C46.005,23.247,44.659,21.901,43.005,21.901z M21.245,28.067l1.167-3.924c0.031-0.104,0.217-0.242,0.326-0.242h0.392
			c0.508,1.417,1.017,2.837,1.494,4.166H21.245z M27.527,28.519c-0.001,0.001-5.67-15.684-5.732-15.859
			c-1.387-3.959,0.702-8.31,4.662-9.697c3.96-1.388,8.309,0.704,9.698,4.663c0.688,1.965,0.593,3.865-0.286,5.65l-7.568,15.291
			C28.057,29.061,27.708,29.04,27.527,28.519z M44.005,27.288c-1.018-0.61-2.604-0.636-3.743-0.047l-6.123,3.164
			c-0.146,0.076-0.238,0.088-0.272,0.09c-0.019-0.041-0.046-0.133-0.046-0.283V24.9c0-0.266,0.103-0.516,0.291-0.705
			c0.189-0.189,0.44-0.293,0.707-0.293h8.187c0.552,0,1,0.449,1,1L44.005,27.288L44.005,27.288z"/>
		<path style="fill:#030104;" d="M11.916,43.66l11.533,2.637c0.156,0.036,0.319,0.054,0.484,0.054c0.838,0,1.675-0.466,2.083-1.159
			l1.836-3.111c0.519-0.884,0.322-2.104-0.449-2.779l-2.314-2.024c-0.2-0.175-0.411-0.64-0.411-0.905v-3.075c0-1.103-0.897-2-2-2
			H12.162c-1.102,0-1.998,0.896-1.998,1.999v8.167C10.164,42.487,10.917,43.433,11.916,43.66z M12.164,33.296h10.515v3.075
			c0,0.843,0.46,1.857,1.094,2.411l2.313,2.023c0.054,0.048,0.078,0.199,0.042,0.261l-1.835,3.11
			c-0.046,0.079-0.217,0.174-0.359,0.174l-11.572-2.64c-0.085-0.02-0.198-0.161-0.198-0.249
			C12.164,41.461,12.164,33.296,12.164,33.296z"/>
		<path style="fill:#030104;" d="M26.811,46.754c0.148,0.51,0.509,0.941,1.015,1.198l0.244,0.115c0.298,0.15,0.641,0.23,0.991,0.23
			c0.686,0,1.344-0.3,1.752-0.792l9.833-11.538c0.604-0.727,0.409-1.366,0.298-1.607c-0.111-0.24-0.474-0.802-1.418-0.811
			l-7.102-0.065c-0.905,0-1.9,0.56-2.333,1.279l-0.846,1.231c-0.558,0.915-0.296,2.155,0.583,2.765l0.441,0.308
			c0.082,0.058,0.171,0.208,0.194,0.303l-3.456,5.855C26.731,45.695,26.661,46.238,26.811,46.754z M32.231,40.311
			c0.579-0.978,0.046-2.279-0.816-2.883l-0.492-0.345l0.848-1.234c0.104-0.171,0.451-0.364,0.654-0.364l5.959,0.056L29.283,46.22
			c-0.026,0.032-0.115,0.079-0.222,0.079l-0.295-0.113L32.231,40.311z"/>
	</g>
</g>
</svg>