<svg width="20" height="20" viewBox="0 0 20 20" fill="none" xmlns="http://www.w3.org/2000/svg">
<path d="M18.2664 9.66666C16.583 5.75833 13.4164 3.33333 9.99969 3.33333C6.58302 3.33333 3.41636 5.75833 1.73302 9.66666C1.68714 9.7718 1.66345 9.88528 1.66345 9.99999C1.66345 10.1147 1.68714 10.2282 1.73302 10.3333C3.41636 14.2417 6.58302 16.6667 9.99969 16.6667C13.4164 16.6667 16.583 14.2417 18.2664 10.3333C18.3122 10.2282 18.3359 10.1147 18.3359 9.99999C18.3359 9.88528 18.3122 9.7718 18.2664 9.66666ZM9.99969 15C7.35802 15 4.85802 13.0917 3.41636 9.99999C4.85802 6.90833 7.35802 4.99999 9.99969 4.99999C12.6414 4.99999 15.1414 6.90833 16.583 9.99999C15.1414 13.0917 12.6414 15 9.99969 15ZM9.99969 6.66666C9.34042 6.66666 8.69595 6.86216 8.14779 7.22843C7.59963 7.5947 7.17238 8.1153 6.92009 8.72438C6.6678 9.33347 6.60179 10.0037 6.7304 10.6503C6.85902 11.2969 7.17649 11.8908 7.64267 12.357C8.10884 12.8232 8.70279 13.1407 9.34939 13.2693C9.99599 13.3979 10.6662 13.3319 11.2753 13.0796C11.8844 12.8273 12.405 12.4001 12.7713 11.8519C13.1375 11.3037 13.333 10.6593 13.333 9.99999C13.333 9.11594 12.9818 8.26809 12.3567 7.64297C11.7316 7.01785 10.8837 6.66666 9.99969 6.66666ZM9.99969 11.6667C9.67005 11.6667 9.34782 11.5689 9.07374 11.3858C8.79966 11.2026 8.58604 10.9423 8.45989 10.6378C8.33374 10.3333 8.30074 9.99815 8.36505 9.67484C8.42936 9.35154 8.58809 9.05457 8.82118 8.82148C9.05427 8.5884 9.35124 8.42966 9.67454 8.36535C9.99784 8.30104 10.333 8.33405 10.6375 8.4602C10.942 8.58634 11.2023 8.79996 11.3855 9.07404C11.5686 9.34813 11.6664 9.67036 11.6664 9.99999C11.6664 10.442 11.4908 10.8659 11.1782 11.1785C10.8656 11.4911 10.4417 11.6667 9.99969 11.6667Z" fill="#BAC1CE"/>
</svg>
