<svg width="24" height="24" viewBox="0 0 24 24" fill="none" xmlns="http://www.w3.org/2000/svg">
<g clip-path="url(#clip0_1111_1264)">
<path d="M22.6667 0H1.33333C0.596954 0 0 0.596954 0 1.33333V22.6667C0 23.403 0.596954 24 1.33333 24H22.6667C23.403 24 24 23.403 24 22.6667V1.33333C24 0.596954 23.403 0 22.6667 0Z" fill="#117EB8"/>
<path fill-rule="evenodd" clip-rule="evenodd" d="M4.37962 9.28266H7.58729V19.6033H4.37962V9.28266ZM5.98396 4.15233C7.00962 4.15233 7.84296 4.98566 7.84296 6.01133C7.84296 7.03799 7.00962 7.87166 5.98396 7.87166C5.73678 7.87634 5.49115 7.8317 5.26143 7.74034C5.0317 7.64899 4.82249 7.51275 4.64604 7.3396C4.46958 7.16645 4.32941 6.95986 4.23372 6.73191C4.13803 6.50396 4.08875 6.25921 4.08875 6.01199C4.08875 5.76477 4.13803 5.52003 4.23372 5.29208C4.32941 5.06412 4.46958 4.85753 4.64604 4.68438C4.82249 4.51123 5.0317 4.375 5.26143 4.28364C5.49115 4.19229 5.73678 4.14765 5.98396 4.15233ZM9.59929 9.28233H12.676V10.6927H12.7186C13.147 9.88133 14.1933 9.02599 15.7536 9.02599C19.0016 9.02599 19.6016 11.1637 19.6016 13.9427V19.6033H16.396V14.5843C16.396 13.3877 16.374 11.848 14.7293 11.848C13.0603 11.848 12.804 13.1517 12.804 14.498V19.6033H9.59896V9.28266L9.59929 9.28233Z" fill="white"/>
</g>
<defs>
<clipPath id="clip0_1111_1264">
<rect width="24" height="24" fill="white"/>
</clipPath>
</defs>
</svg>
