<svg width="24" height="24" viewBox="0 0 24 24" fill="none" xmlns="http://www.w3.org/2000/svg">
<g clip-path="url(#clip0_1111_1252)">
<path d="M23.7092 12.2245C23.7092 11.2413 23.6294 10.5237 23.4567 9.77963H12.2288V14.2176H18.8193C18.6865 15.3205 17.969 16.9815 16.3744 18.0976L16.3521 18.2461L19.9022 20.9963L20.1481 21.0209C22.407 18.9347 23.7092 15.8653 23.7092 12.2245Z" fill="#4285F4"/>
<path d="M12.2287 23.9176C15.4576 23.9176 18.1682 22.8545 20.1481 21.0209L16.3744 18.0976C15.3646 18.8018 14.0092 19.2934 12.2287 19.2934C9.06633 19.2934 6.38227 17.2074 5.42547 14.324L5.28523 14.3359L1.59381 17.1927L1.54553 17.3269C3.51207 21.2334 7.55149 23.9176 12.2287 23.9176Z" fill="#34A853"/>
<path d="M5.42553 14.324C5.17307 13.5799 5.02697 12.7826 5.02697 11.9588C5.02697 11.1349 5.17307 10.3377 5.41225 9.59359L5.40556 9.43511L1.66788 6.5324L1.54559 6.59056C0.735088 8.21166 0.27002 10.0321 0.27002 11.9588C0.27002 13.8855 0.735088 15.7058 1.54559 17.3269L5.42553 14.324Z" fill="#FBBC05"/>
<path d="M12.2287 4.62403C14.4743 4.62403 15.989 5.59402 16.8528 6.40461L20.2278 3.10928C18.155 1.1826 15.4576 0 12.2287 0C7.55149 0 3.51207 2.68406 1.54553 6.59056L5.41219 9.59359C6.38227 6.7102 9.06633 4.62403 12.2287 4.62403Z" fill="#EB4335"/>
</g>
<defs>
<clipPath id="clip0_1111_1252">
<rect width="24" height="24" fill="white"/>
</clipPath>
</defs>
</svg>
